<?xml version="1.0"?>
<svg xmlns="http://www.w3.org/2000/svg" xmlns:xlink="http://www.w3.org/1999/xlink" version="1.1" viewBox="0 0 192 192" width="25px" height="25px"><g transform=""><g fill="none" fill-rule="nonzero" stroke="none" stroke-width="1" stroke-linecap="butt" stroke-linejoin="miter" stroke-miterlimit="10" stroke-dasharray="" stroke-dashoffset="0" font-family="none" font-weight="none" font-size="none" text-anchor="none" style="mix-blend-mode: normal"><path d="M0,192v-192h192v192z" fill="none"/><g id="original-icon" fill="#a4b1d6"><g id="surface1"><path d="M170.985,133.44c-4.14,9.195 -6.135,13.305 -11.46,21.42c-7.455,11.34 -17.97,25.5 -30.96,25.59c-11.565,0.105 -14.55,-7.545 -30.255,-7.41c-15.69,0.075 -18.96,7.56 -30.54,7.44c-13.005,-0.12 -22.95,-12.87 -30.405,-24.195c-20.85,-31.755 -23.055,-68.985 -10.17,-88.785c9.12,-14.04 23.535,-22.29 37.08,-22.29c13.8,0 22.47,7.575 33.87,7.575c11.07,0 17.805,-7.59 33.765,-7.59c12.06,0 24.81,6.57 33.93,17.91c-29.82,16.35 -24.975,58.935 5.145,70.335zM119.79,32.52c5.805,-7.455 10.215,-17.97 8.61,-28.68c-9.465,0.645 -20.535,6.69 -27,14.52c-5.865,7.14 -10.725,17.73 -8.835,27.975c10.335,0.33 21.03,-5.835 27.225,-13.815z"/></g></g><path d="M96,192c-53.01934,0 -96,-42.98066 -96,-96v0c0,-53.01934 42.98066,-96 96,-96v0c53.01934,0 96,42.98066 96,96v0c0,53.01934 -42.98066,96 -96,96z" fill="none"/><path d="M96,188.16c-50.89856,0 -92.16,-41.26144 -92.16,-92.16v0c0,-50.89856 41.26144,-92.16 92.16,-92.16v0c50.89856,0 92.16,41.26144 92.16,92.16v0c0,50.89856 -41.26144,92.16 -92.16,92.16z" fill="none"/><path d="M0,192v-192h192v192z" fill="none"/><path d="M3.84,188.16v-184.32h184.32v184.32z" fill="none"/><path d="" fill="none"/><path d="" fill="none"/><path d="" fill="none"/><path d="" fill="none"/></g></g></svg>
